<svg width="62" height="52" viewBox="0 0 62 52" fill="none" xmlns="http://www.w3.org/2000/svg">
<g clip-path="url(#clip0_1159_144478)">
<path d="M51.9834 31.7718V26.3545V7.12736C51.9834 4.91822 50.1925 3.12736 47.9834 3.12736H37.5623H23.6273H16.8672C14.658 3.12736 12.8672 4.91822 12.8672 7.12736V45.5817C12.8672 47.7908 14.658 49.5817 16.8672 49.5817H48.8021C50.5591 49.5817 51.9834 48.1574 51.9834 46.4004V46.4004" stroke="#686868" stroke-linecap="round" stroke-linejoin="round"/>
<path d="M48.7345 33.5353V9.12742C47.0439 9.12742 45.6793 7.82433 45.6793 6.21004L37.4444 6.21004H23.8034L19.0078 6.21004C19.0078 7.82433 17.6432 9.12742 15.9526 9.12742V43.426C17.6432 43.426 19.0078 44.7291 19.0078 46.3434H45.6793C45.6793 44.946 46.7019 43.7818 48.0732 43.4942" stroke="#686868" stroke-linecap="round" stroke-linejoin="round"/>
<path opacity="0.8" d="M39.8958 31.3393C40.5386 31.0066 40.9525 30.3531 40.9781 29.6304L41.2388 22.2647C41.2644 21.542 40.8977 20.8624 40.2799 20.4877L33.7547 16.5292C33.1592 16.1679 32.4178 16.1432 31.7981 16.4639L25.0085 19.9776C24.3657 20.3103 23.9518 20.9638 23.9262 21.6866L23.6655 29.0522C23.6399 29.775 24.0066 30.4545 24.6244 30.8293L31.1496 34.7877C31.7451 35.149 32.4865 35.1737 33.1061 34.853L39.8958 31.3393Z" fill="url(#paint0_linear_1159_144478)"/>
<path d="M24.8122 20.2296C24.1815 20.5835 23.791 21.2504 23.791 21.9737L23.791 29.3435C23.791 30.0668 24.1815 30.7337 24.8122 31.0876L31.4736 34.826C32.0815 35.1671 32.8233 35.1671 33.4312 34.826L40.0926 31.0876C40.7233 30.7337 41.1138 30.0668 41.1138 29.3435L41.1138 21.9737C41.1138 21.2504 40.7233 20.5835 40.0926 20.2296L33.4312 16.4912C32.8233 16.1501 32.0815 16.1501 31.4736 16.4912L24.8122 20.2296Z" stroke="#686868" stroke-linecap="round" stroke-linejoin="round"/>
<path d="M12.7603 31.4649C10.1302 32.8492 8.33665 35.6057 8.33665 38.7835V40.0414C3.84682 40.0414 0.813477 43.6766 0.813477 48.1664V48.5817" stroke="#686868" stroke-linecap="round" stroke-linejoin="round"/>
<path d="M57.3481 25.197L58.4616 25.661L57.3481 26.1284L56.8876 27.2419L56.4202 26.1284L55.3066 25.6678L56.4167 25.2004L56.8807 24.0835L57.3481 25.197Z" fill="#6B6B6B"/>
<path d="M59.0439 44.1533C58.3638 42.1431 56.4619 40.6927 54.223 40.6927C51.7975 40.6927 49.8656 42.2454 49.354 44.5144" stroke="#686868" stroke-miterlimit="10" stroke-linecap="round" stroke-linejoin="round"/>
<path d="M53.9345 46.5126C57.9398 46.5126 61.1868 43.2656 61.1868 39.2603C61.1868 35.2549 57.9398 32.0079 53.9345 32.0079C49.9291 32.0079 46.6821 35.2549 46.6821 39.2603C46.6821 43.2656 49.9291 46.5126 53.9345 46.5126Z" stroke="#686868" stroke-miterlimit="10"/>
<path d="M54.0005 39.495C55.3069 39.495 56.3658 38.436 56.3658 37.1297C56.3658 35.8234 55.3069 34.7644 54.0005 34.7644C52.6942 34.7644 51.6353 35.8234 51.6353 37.1297C51.6353 38.436 52.6942 39.495 54.0005 39.495Z" stroke="#686868" stroke-miterlimit="10"/>
<path d="M5.33079 7.95787L7.77393 9.04663L5.28138 10.0144L4.18334 12.4614L3.21706 9.96494L0.773926 8.87617L3.26647 7.90288L4.36451 5.4614L5.33079 7.95787Z" stroke="#686868" stroke-miterlimit="10"/>
</g>
<defs>
<linearGradient id="paint0_linear_1159_144478" x1="32.4521" y1="17.3482" x2="32.4521" y2="34.1479" gradientUnits="userSpaceOnUse">
<stop stop-color="#FF6C37"/>
<stop offset="1" stop-color="#FFB400"/>
</linearGradient>
<clipPath id="clip0_1159_144478">
<rect width="62" height="51" fill="white" transform="translate(0 0.951492)"/>
</clipPath>
</defs>
</svg>
