<svg width="59" height="44" viewBox="0 0 59 44" fill="none" xmlns="http://www.w3.org/2000/svg">
<path opacity="0.8" d="M34.3874 15.0175C36.0528 13.3924 31.9095 11.1428 29.445 11.1428C26.8193 11.1428 24.6167 12.9224 23.9653 15.3399C23.9653 15.3466 30.5933 18.7176 34.3874 15.0175Z" fill="url(#paint0_linear_1159_144612)"/>
<path d="M24.0859 15.3936C24.7373 12.9761 26.9466 11.1965 29.5656 11.1965C32.0234 11.1965 34.1185 12.7612 34.9109 14.9504" stroke="#686868" stroke-miterlimit="10"/>
<path d="M29.2432 17.0186C33.7123 17.0186 37.3351 13.3957 37.3351 8.92671C37.3351 4.45769 33.7123 0.834839 29.2432 0.834839C24.7742 0.834839 21.1514 4.45769 21.1514 8.92671C21.1514 13.3957 24.7742 17.0186 29.2432 17.0186Z" stroke="#686868" stroke-miterlimit="10"/>
<path opacity="0.8" d="M29.3173 9.18859C30.7748 9.18859 31.9564 8.00702 31.9564 6.54949C31.9564 5.09196 30.7748 3.9104 29.3173 3.9104C27.8598 3.9104 26.6782 5.09196 26.6782 6.54949C26.6782 8.00702 27.8598 9.18859 29.3173 9.18859Z" fill="url(#paint1_linear_1159_144612)"/>
<path d="M29.3173 9.18871C30.7748 9.18871 31.9564 8.00715 31.9564 6.54962C31.9564 5.09208 30.7748 3.91052 29.3173 3.91052C27.8598 3.91052 26.6782 5.09208 26.6782 6.54962C26.6782 8.00715 27.8598 9.18871 29.3173 9.18871Z" stroke="#686868" stroke-miterlimit="10"/>
<path d="M29.2432 17.0186C33.7123 17.0186 37.3351 13.3957 37.3351 8.92671C37.3351 4.45769 33.7123 0.834839 29.2432 0.834839C24.7742 0.834839 21.1514 4.45769 21.1514 8.92671C21.1514 13.3957 24.7742 17.0186 29.2432 17.0186Z" stroke="#686868" stroke-miterlimit="10"/>
<path d="M8.72168 41.5427C9.38649 39.1521 11.5824 37.3994 14.1879 37.3994C16.6658 37.3994 18.7744 38.9909 19.5467 41.207" stroke="#686868" stroke-miterlimit="10"/>
<path d="M13.8658 43.2216C18.3348 43.2216 21.9577 39.5987 21.9577 35.1297C21.9577 30.6607 18.3348 27.0378 13.8658 27.0378C9.39678 27.0378 5.77393 30.6607 5.77393 35.1297C5.77393 39.5987 9.39678 43.2216 13.8658 43.2216Z" stroke="#686868" stroke-miterlimit="10"/>
<path d="M13.8658 43.2216C18.3348 43.2216 21.9577 39.5987 21.9577 35.1297C21.9577 30.6607 18.3348 27.0378 13.8658 27.0378C9.39678 27.0378 5.77393 30.6607 5.77393 35.1297C5.77393 39.5987 9.39678 43.2216 13.8658 43.2216Z" stroke="#686868" stroke-miterlimit="10"/>
<path d="M13.9394 35.3916C15.3969 35.3916 16.5785 34.21 16.5785 32.7525C16.5785 31.295 15.3969 30.1134 13.9394 30.1134C12.4819 30.1134 11.3003 31.295 11.3003 32.7525C11.3003 34.21 12.4819 35.3916 13.9394 35.3916Z" stroke="#686868" stroke-miterlimit="10"/>
<path d="M39.5981 41.5763C40.2562 39.1655 42.4588 37.3994 45.0711 37.3994C47.5423 37.3994 49.6442 38.9775 50.4231 41.1801" stroke="#686868" stroke-miterlimit="10"/>
<path d="M44.7554 43.2216C49.2245 43.2216 52.8473 39.5987 52.8473 35.1297C52.8473 30.6607 49.2245 27.0378 44.7554 27.0378C40.2864 27.0378 36.6636 30.6607 36.6636 35.1297C36.6636 39.5987 40.2864 43.2216 44.7554 43.2216Z" stroke="#686868" stroke-miterlimit="10"/>
<path d="M44.7554 43.2216C49.2245 43.2216 52.8473 39.5987 52.8473 35.1297C52.8473 30.6607 49.2245 27.0378 44.7554 27.0378C40.2864 27.0378 36.6636 30.6607 36.6636 35.1297C36.6636 39.5987 40.2864 43.2216 44.7554 43.2216Z" stroke="#686868" stroke-miterlimit="10"/>
<path d="M44.829 35.3916C46.2866 35.3916 47.4681 34.21 47.4681 32.7525C47.4681 31.295 46.2866 30.1134 44.829 30.1134C43.3715 30.1134 42.1899 31.295 42.1899 32.7525C42.1899 34.21 43.3715 35.3916 44.829 35.3916Z" stroke="#686868" stroke-miterlimit="10"/>
<path d="M18.1226 28.3607L25.7779 16.4747" stroke="#686868" stroke-miterlimit="10"/>
<path d="M40.6929 28.0182L32.6816 16.1859" stroke="#686868" stroke-miterlimit="10"/>
<path d="M21.8296 36.2175H36.7643" stroke="#686868" stroke-miterlimit="10"/>
<path d="M49.6895 17.8511L50.7698 18.4388L49.6895 19.037L49.0905 20.118L48.5022 19.037L47.4219 18.4388L48.5022 17.8511L49.0905 16.7701L49.6895 17.8511Z" fill="#686868"/>
<path d="M3.36328 10.4243L4.08349 10.8149L3.36328 11.2055L2.97109 11.9308L2.57177 11.2055L1.85156 10.8149L2.57177 10.4243L2.97109 9.69891L3.36328 10.4243Z" fill="#686868"/>
<path d="M20.8089 8.24847H19.889C13.4557 8.24847 8.238 13.4662 8.238 19.8994L8.21785 19.9196C3.90666 19.9263 0.723633 23.3981 0.723633 27.7093" stroke="#686868" stroke-miterlimit="10" stroke-linecap="round" stroke-linejoin="round"/>
<path d="M52.8472 35.1297C54.891 35.1297 56.7581 35.8813 58.1881 37.1226" stroke="#686868" stroke-miterlimit="10" stroke-linecap="round" stroke-linejoin="round"/>
<path d="M51.9705 10.2005C53.1504 8.49143 52.7561 6.17339 51.0897 5.02301C49.4234 3.87262 47.116 4.32553 45.9362 6.0346C44.7563 7.74367 45.1506 10.0617 46.817 11.2121C48.4833 12.3625 50.7907 11.9096 51.9705 10.2005Z" stroke="#686868" stroke-miterlimit="10"/>
<path d="M52.7261 8.74013C54.3511 10.1839 55.2577 11.4195 54.9354 11.8963C54.4519 12.6014 51.4166 11.3456 48.1597 9.09604C44.9028 6.84643 42.6532 4.4558 43.1367 3.7507C43.4657 3.28063 44.9498 3.69026 46.8771 4.70426" stroke="#686868" stroke-miterlimit="10"/>
<defs>
<linearGradient id="paint0_linear_1159_144612" x1="29.3683" y1="11.1428" x2="29.3683" y2="16.7516" gradientUnits="userSpaceOnUse">
<stop stop-color="#FF6C37"/>
<stop offset="1" stop-color="#FFB400"/>
</linearGradient>
<linearGradient id="paint1_linear_1159_144612" x1="29.3173" y1="3.9104" x2="29.3173" y2="9.18859" gradientUnits="userSpaceOnUse">
<stop stop-color="#FF6C37"/>
<stop offset="1" stop-color="#FFB400"/>
</linearGradient>
</defs>
</svg>
